<svg width="515" height="775" viewBox="0 0 515 775" fill="none" xmlns="http://www.w3.org/2000/svg">
<path d="M257.5 8.45001C223.882 8.45001 191.059 13.5848 160 26.45C128.941 39.3152 102.272 58.1785 78.5 81.9503C54.7282 105.722 37.8652 135.391 25 166.45C12.1348 197.51 8 228.832 8 262.45C8 296.069 23.136 333.391 36.0012 364.45C55.7817 398.183 80.2144 418.729 98.2144 445.229C114.585 461.599 125.334 478.805 132.074 502.628C138.821 526.478 136.65 560.87 160.007 569.165C172.298 573.53 197.462 574.02 257.5 574.031" stroke="#8C7BFA" stroke-width="16"/>
<path d="M257.5 8.0047C291.118 8.0047 323.941 13.1395 355 26.0047C386.059 38.8699 412.728 57.7331 436.5 81.5049C460.272 105.277 477.135 134.946 490 166.005C502.865 197.064 507 228.387 507 262.005C507 295.623 491.864 332.945 478.999 364.005C459.218 397.737 434.786 418.284 416.786 444.784C400.415 461.154 389.666 478.359 382.926 502.182C376.179 526.032 378.35 560.424 354.993 568.719C342.702 573.084 317.538 573.575 257.5 573.586" stroke="#8C7BFA" stroke-width="16"/>
<line x1="158.832" y1="610.391" x2="353.883" y2="594.676" stroke="#8C7BFA" stroke-width="16" stroke-linecap="round"/>
<line x1="255" y1="571.008" x2="255" y2="464.008" stroke="#8C7BFA" stroke-width="16"/>
<line x1="265.312" y1="443.496" x2="330.788" y2="309.499" stroke="#8C7BFA" stroke-width="16"/>
<line x1="221.843" y1="414.554" x2="328.843" y2="307.554" stroke="#8C7BFA" stroke-width="16"/>
<line x1="339.333" y1="291.453" x2="400.333" y2="168.453" stroke="#8C7BFA" stroke-width="16"/>
<path d="M115.5 158.008L162 158.008L253.594 354.563C253.952 355.333 255.048 355.333 255.406 354.563L347 158.008H397.5" stroke="#8C7BFA" stroke-width="16"/>
<path d="M138.5 244.008L102 163.508" stroke="#8C7BFA" stroke-width="16"/>
<path d="M200.967 254.448C200.967 254.448 170.972 233.028 153.986 210.018C137 187.008 111.969 162.448 111.969 162.448" stroke="#8C7BFA" stroke-width="16"/>
<path d="M293.226 277.675C293.226 277.675 314.673 268.679 350.672 237.682C386.671 206.686 400.5 167.008 400.5 167.008" stroke="#8C7BFA" stroke-width="16"/>
<path d="M285.994 288.016C285.994 288.016 295.005 295.986 312.003 296.497C329 297.007 331 297.508 331 297.508" stroke="#8C7BFA" stroke-width="16"/>
<path d="M203.008 251.041C203.008 251.041 200.009 288.045 203.005 332.527C206 377.008 224.438 416.049 224.438 416.049" stroke="#8C7BFA" stroke-width="16"/>
<path d="M244.701 444.562C244.701 444.562 224.188 422.669 212.818 407.887C201.448 393.105 189.28 363.726 189.28 363.726L148 267.008" stroke="#8C7BFA" stroke-width="16"/>
<line x1="158.832" y1="649.391" x2="353.883" y2="633.676" stroke="#8C7BFA" stroke-width="16" stroke-linecap="round"/>
<path d="M157.086 688.016L361.5 673.008" stroke="#8C7BFA" stroke-width="16" stroke-linecap="round"/>
<path d="M190.502 706.491C190.502 712.508 208.559 728.015 221.108 734.492C233.656 740.969 247.762 744.043 262.023 743.408C276.283 742.772 290.201 738.45 302.389 730.872C314.577 723.293 331.493 706.508 331.493 700.211" stroke="#8C7BFA" stroke-width="16"/>
<circle cx="254.5" cy="450.008" r="14" stroke="#8C7BFA" stroke-width="8"/>
<circle cx="341.5" cy="304.008" r="14" stroke="#8C7BFA" stroke-width="8"/>
<circle cx="407.5" cy="158.008" r="14" stroke="#8C7BFA" stroke-width="8"/>
<circle cx="144.5" cy="255.008" r="14" stroke="#8C7BFA" stroke-width="8"/>
<path d="M103.5 137.008C111.232 137.008 117.5 143.276 117.5 151.008C117.5 158.74 111.232 165.008 103.5 165.008C95.768 165.008 89.5 158.74 89.5 151.008C89.5 143.276 95.768 137.008 103.5 137.008Z" stroke="#8C7BFA" stroke-width="8"/>
</svg>
